<?xml version="1.0" encoding="UTF-8"?>
<svg id="Layer_2" data-name="Layer 2" xmlns="http://www.w3.org/2000/svg" viewBox="0 0 1079.85 98.57">
  <defs>
    <style>
      .cls-1 {
        fill: none;
      }
    </style>
  </defs>
  <g id="contact_page" data-name="contact page">
    <rect class="cls-1" width="1079.85" height="98.57"/>
    <g>
      <path d="M331.55,87.66c4.77,0,8.94-1.45,12.5-4.34,3.56-2.89,5.54-6.5,5.93-10.84h12.65c-.24,4.48-1.78,8.74-4.62,12.79-2.84,4.05-6.64,7.27-11.38,9.68-4.75,2.41-9.77,3.61-15.07,3.61-10.65,0-19.11-3.55-25.4-10.66-6.29-7.11-9.43-16.83-9.43-29.16v-2.24c0-7.61,1.4-14.38,4.19-20.31,2.79-5.93,6.8-10.53,12.03-13.8,5.23-3.28,11.41-4.91,18.54-4.91,8.77,0,16.05,2.63,21.86,7.88,5.81,5.25,8.9,12.07,9.29,20.45h-12.65c-.39-5.06-2.3-9.21-5.75-12.47-3.44-3.25-7.7-4.88-12.75-4.88-6.79,0-12.06,2.45-15.79,7.33-3.73,4.89-5.6,11.96-5.6,21.21v2.53c0,9.01,1.85,15.95,5.56,20.81,3.71,4.87,9.01,7.3,15.9,7.3Z"/>
      <path d="M374.11,57.31c0-7.66,1.51-14.55,4.52-20.67,3.01-6.12,7.2-10.84,12.57-14.16,5.37-3.32,11.5-4.99,18.39-4.99,10.65,0,19.26,3.69,25.83,11.06s9.86,17.18,9.86,29.41v.94c0,7.61-1.46,14.44-4.37,20.49-2.92,6.05-7.08,10.76-12.5,14.13-5.42,3.37-11.65,5.06-18.68,5.06-10.6,0-19.19-3.69-25.76-11.06s-9.86-17.13-9.86-29.27v-.94ZM387.56,58.9c0,8.67,2.01,15.63,6.03,20.88,4.02,5.25,9.41,7.88,16.15,7.88s12.19-2.66,16.19-7.99c4-5.32,6-12.78,6-22.37,0-8.57-2.04-15.52-6.11-20.85-4.07-5.32-9.48-7.99-16.22-7.99s-11.92,2.63-15.97,7.88c-4.05,5.25-6.07,12.77-6.07,22.55Z"/>
      <path d="M474.71,18.93l.43,9.83c5.97-7.52,13.78-11.27,23.41-11.27,16.52,0,24.86,9.32,25,27.97v51.67h-13.37v-51.74c-.05-5.64-1.34-9.8-3.87-12.5-2.53-2.7-6.47-4.05-11.82-4.05-4.34,0-8.14,1.16-11.42,3.47-3.28,2.31-5.83,5.35-7.66,9.11v55.72h-13.37V18.93h12.65Z"/>
      <path d="M561.86,0v18.93h14.6v10.33h-14.6v48.55c0,3.14.65,5.49,1.95,7.05,1.3,1.57,3.52,2.35,6.65,2.35,1.54,0,3.66-.29,6.36-.87v10.78c-3.52.96-6.94,1.44-10.26,1.44-5.97,0-10.48-1.81-13.51-5.42s-4.55-8.74-4.55-15.39V29.27h-14.24v-10.33h14.24V0h13.37Z"/>
      <path d="M640.34,97.12c-.77-1.54-1.4-4.29-1.88-8.24-6.21,6.46-13.63,9.68-22.26,9.68-7.71,0-14.03-2.18-18.97-6.54-4.94-4.36-7.41-9.89-7.41-16.58,0-8.14,3.09-14.46,9.29-18.97,6.19-4.5,14.9-6.76,26.12-6.76h13.01v-6.14c0-4.67-1.4-8.39-4.19-11.17-2.79-2.77-6.91-4.16-12.36-4.16-4.77,0-8.77,1.2-12,3.61-3.23,2.41-4.84,5.32-4.84,8.74h-13.44c0-3.9,1.38-7.67,4.16-11.31,2.77-3.64,6.53-6.52,11.27-8.64,4.74-2.12,9.96-3.18,15.65-3.18,9.01,0,16.07,2.25,21.17,6.76,5.11,4.51,7.76,10.71,7.95,18.61v35.99c0,7.18.91,12.89,2.75,17.13v1.16h-14.02ZM618.15,86.94c4.19,0,8.17-1.08,11.92-3.25s6.48-4.99,8.17-8.46v-16.04h-10.48c-16.38,0-24.57,4.79-24.57,14.38,0,4.19,1.4,7.47,4.19,9.83,2.79,2.36,6.38,3.54,10.77,3.54Z"/>
      <path d="M703.93,87.66c4.77,0,8.94-1.45,12.5-4.34,3.56-2.89,5.54-6.5,5.93-10.84h12.65c-.24,4.48-1.78,8.74-4.62,12.79-2.84,4.05-6.64,7.27-11.38,9.68-4.75,2.41-9.77,3.61-15.07,3.61-10.65,0-19.11-3.55-25.4-10.66-6.29-7.11-9.43-16.83-9.43-29.16v-2.24c0-7.61,1.4-14.38,4.19-20.31,2.79-5.93,6.8-10.53,12.03-13.8,5.23-3.28,11.41-4.91,18.54-4.91,8.77,0,16.05,2.63,21.86,7.88,5.8,5.25,8.9,12.07,9.29,20.45h-12.65c-.39-5.06-2.3-9.21-5.75-12.47-3.45-3.25-7.7-4.88-12.75-4.88-6.79,0-12.06,2.45-15.79,7.33-3.73,4.89-5.6,11.96-5.6,21.21v2.53c0,9.01,1.85,15.95,5.56,20.81,3.71,4.87,9.01,7.3,15.9,7.3Z"/>
      <path d="M768.18,0v18.93h14.6v10.33h-14.6v48.55c0,3.14.65,5.49,1.95,7.05,1.3,1.57,3.52,2.35,6.65,2.35,1.54,0,3.66-.29,6.36-.87v10.78c-3.52.96-6.94,1.44-10.26,1.44-5.97,0-10.48-1.81-13.51-5.42s-4.55-8.74-4.55-15.39V29.27h-14.24v-10.33h14.24V0h13.37Z"/>
    </g>
  </g>
</svg>