<?xml version="1.0" encoding="UTF-8"?>
<svg id="Layer_2" data-name="Layer 2" xmlns="http://www.w3.org/2000/svg" viewBox="0 0 1079.85 56.46">
  <defs>
    <style>
      .cls-1 {
        fill: none;
      }
    </style>
  </defs>
  <g id="contact_page" data-name="contact page">
    <rect class="cls-1" width="1079.85" height="56.46"/>
    <g>
      <path d="M300.64,5.28c0-.84.26-1.55.77-2.13.52-.58,1.28-.87,2.29-.87s1.78.29,2.3.87c.52.58.79,1.29.79,2.13s-.26,1.54-.79,2.11c-.52.56-1.29.84-2.3.84s-1.77-.28-2.29-.84-.77-1.26-.77-2.11ZM306.26,43.74h-5.2V13.34h5.2v30.39Z"/>
      <path d="M319.49,13.34l.17,3.82c2.32-2.92,5.36-4.38,9.1-4.38,6.42,0,9.66,3.62,9.72,10.87v20.08h-5.2v-20.11c-.02-2.19-.52-3.81-1.5-4.86-.98-1.05-2.51-1.57-4.59-1.57-1.69,0-3.17.45-4.44,1.35s-2.27,2.08-2.98,3.54v21.66h-5.2V13.34h4.92Z"/>
      <path d="M348.87,43.74v-26.38h-4.8v-4.02h4.8v-3.12c0-3.26.87-5.78,2.61-7.56s4.2-2.67,7.39-2.67c1.2,0,2.39.16,3.57.47l-.28,4.19c-.88-.17-1.82-.25-2.81-.25-1.69,0-2.99.49-3.9,1.48s-1.38,2.4-1.38,4.24v3.21h6.49v4.02h-6.49v26.38h-5.2Z"/>
      <path d="M364.91,28.26c0-2.98.58-5.66,1.76-8.03s2.8-4.21,4.89-5.51c2.09-1.29,4.47-1.94,7.15-1.94,4.14,0,7.49,1.43,10.04,4.3s3.83,6.68,3.83,11.43v.37c0,2.96-.57,5.61-1.7,7.96-1.13,2.35-2.75,4.18-4.86,5.49-2.11,1.31-4.53,1.97-7.26,1.97-4.12,0-7.46-1.43-10.01-4.3-2.56-2.86-3.83-6.66-3.83-11.38v-.37ZM370.13,28.88c0,3.37.78,6.08,2.35,8.12,1.56,2.04,3.66,3.06,6.28,3.06s4.74-1.03,6.29-3.1c1.55-2.07,2.33-4.97,2.33-8.69,0-3.33-.79-6.03-2.37-8.1-1.58-2.07-3.68-3.1-6.31-3.1s-4.63,1.02-6.21,3.06c-1.57,2.04-2.36,4.96-2.36,8.76Z"/>
      <path d="M443.98,29.63c-.22,4.53-1.35,8.11-3.37,10.73-2.02,2.62-4.73,3.93-8.12,3.93s-5.75-1.57-6.74-4.72c-1.01,1.59-2.17,2.78-3.47,3.55-1.3.78-2.65,1.17-4.03,1.17-2.66,0-4.67-1.09-6.04-3.26-1.37-2.17-1.87-5.18-1.52-9.02.28-3.09.99-5.85,2.12-8.27,1.13-2.42,2.59-4.33,4.38-5.72,1.79-1.39,3.67-2.08,5.63-2.08,1.52,0,2.87.2,4.07.6,1.2.4,2.55,1.19,4.04,2.37l-1.46,15.56c-.36,4.33.84,6.49,3.6,6.49,2.12,0,3.83-1.05,5.14-3.15,1.31-2.1,2.02-4.83,2.13-8.2.36-7.29-1-12.84-4.06-16.66-3.06-3.82-7.72-5.73-13.97-5.73-3.76,0-7.11.93-10.03,2.79-2.92,1.86-5.22,4.56-6.91,8.08s-2.63,7.58-2.84,12.19c-.23,4.64.34,8.67,1.69,12.09,1.35,3.42,3.4,6.03,6.17,7.84,2.76,1.81,6.1,2.71,10.01,2.71,1.69,0,3.38-.21,5.07-.62,1.69-.41,3.1-.95,4.23-1.6l1.04,3.23c-1.16.73-2.7,1.33-4.62,1.8-1.92.47-3.86.7-5.83.7-4.68,0-8.71-1.05-12.08-3.16s-5.89-5.14-7.57-9.1c-1.68-3.96-2.4-8.59-2.18-13.89.22-5.15,1.38-9.78,3.46-13.89,2.08-4.11,4.9-7.28,8.46-9.52,3.56-2.24,7.57-3.36,12.05-3.36s8.66,1.05,11.99,3.15c3.33,2.1,5.81,5.12,7.44,9.07,1.63,3.95,2.33,8.58,2.11,13.88ZM415.16,32.02c-.26,2.66-.01,4.7.74,6.12.76,1.42,1.96,2.13,3.61,2.13,1.12,0,2.21-.48,3.24-1.43,1.04-.96,1.9-2.32,2.57-4.1l.03-.25,1.29-14.13c-1.05-.54-2.17-.81-3.37-.81-2.19,0-4,1.11-5.44,3.34-1.43,2.23-2.33,5.27-2.68,9.13Z"/>
      <path d="M469.52,43.74c-.3-.6-.54-1.67-.73-3.2-2.42,2.51-5.3,3.76-8.65,3.76-3,0-5.45-.85-7.37-2.54-1.92-1.69-2.88-3.84-2.88-6.45,0-3.16,1.2-5.62,3.61-7.37,2.41-1.75,5.79-2.63,10.15-2.63h5.06v-2.39c0-1.82-.54-3.26-1.63-4.34-1.09-1.08-2.69-1.62-4.8-1.62-1.85,0-3.41.47-4.66,1.4-1.25.94-1.88,2.07-1.88,3.4h-5.22c0-1.52.54-2.98,1.62-4.4,1.08-1.41,2.54-2.53,4.38-3.36,1.84-.82,3.87-1.24,6.08-1.24,3.5,0,6.25.88,8.23,2.63s3.02,4.16,3.09,7.23v13.99c0,2.79.36,5.01,1.07,6.66v.45h-5.45ZM460.89,39.77c1.63,0,3.17-.42,4.63-1.26,1.46-.84,2.52-1.94,3.17-3.29v-6.24h-4.07c-6.37,0-9.55,1.86-9.55,5.59,0,1.63.54,2.9,1.63,3.82,1.09.92,2.48,1.38,4.19,1.38Z"/>
      <path d="M496.73,18.01c-.79-.13-1.64-.2-2.56-.2-3.41,0-5.72,1.45-6.94,4.35v21.57h-5.2V13.34h5.06l.08,3.51c1.7-2.71,4.12-4.07,7.25-4.07,1.01,0,1.78.13,2.3.39v4.83Z"/>
      <path d="M513.17,40.06c1.85,0,3.47-.56,4.86-1.69,1.39-1.12,2.15-2.53,2.3-4.21h4.92c-.09,1.74-.69,3.4-1.8,4.97-1.11,1.57-2.58,2.83-4.42,3.76-1.84.94-3.8,1.4-5.86,1.4-4.14,0-7.43-1.38-9.87-4.14-2.44-2.76-3.67-6.54-3.67-11.33v-.87c0-2.96.54-5.59,1.63-7.89,1.09-2.3,2.65-4.09,4.68-5.37,2.03-1.27,4.43-1.91,7.21-1.91,3.41,0,6.24,1.02,8.5,3.06,2.26,2.04,3.46,4.69,3.61,7.95h-4.92c-.15-1.97-.89-3.58-2.23-4.85-1.34-1.26-2.99-1.9-4.96-1.9-2.64,0-4.69.95-6.14,2.85-1.45,1.9-2.18,4.65-2.18,8.24v.98c0,3.5.72,6.2,2.16,8.09,1.44,1.89,3.5,2.84,6.18,2.84Z"/>
      <path d="M536.28,17.02c2.3-2.83,5.3-4.24,8.99-4.24,6.42,0,9.66,3.62,9.72,10.87v20.08h-5.2v-20.11c-.02-2.19-.52-3.81-1.5-4.86-.98-1.05-2.51-1.57-4.59-1.57-1.69,0-3.17.45-4.44,1.35s-2.27,2.08-2.98,3.54v21.66h-5.2V.59h5.2v16.43Z"/>
      <path d="M573.59,28.48h-13.71v-4.24h13.71v4.24Z"/>
      <path d="M585.69,5.98v7.36h5.67v4.02h-5.67v18.87c0,1.22.25,2.13.76,2.74.51.61,1.37.91,2.58.91.6,0,1.42-.11,2.47-.34v4.19c-1.37.37-2.7.56-3.99.56-2.32,0-4.07-.7-5.25-2.11s-1.77-3.4-1.77-5.98v-18.85h-5.53v-4.02h5.53v-7.36h5.2Z"/>
      <path d="M607.38,36.12l7.08-22.78h5.56l-12.22,35.08c-1.89,5.06-4.9,7.58-9.02,7.58l-.98-.08-1.94-.37v-4.21l1.4.11c1.76,0,3.13-.36,4.12-1.07s1.79-2.01,2.43-3.9l1.15-3.09-10.84-30.06h5.67l7.58,22.78Z"/>
      <path d="M650.33,28.88c0,4.63-1.06,8.35-3.17,11.18-2.12,2.83-4.98,4.24-8.6,4.24s-6.59-1.17-8.71-3.51v14.63h-5.2V13.34h4.75l.25,3.37c2.12-2.62,5.06-3.93,8.82-3.93s6.54,1.38,8.67,4.13,3.19,6.58,3.19,11.49v.48ZM645.13,28.29c0-3.43-.73-6.13-2.19-8.12-1.46-1.98-3.46-2.98-6.01-2.98-3.15,0-5.51,1.4-7.08,4.19v14.52c1.55,2.77,3.93,4.16,7.13,4.16,2.49,0,4.47-.99,5.94-2.96,1.47-1.97,2.21-4.91,2.21-8.81Z"/>
      <path d="M669.54,44.3c-4.12,0-7.47-1.35-10.06-4.06-2.58-2.71-3.88-6.32-3.88-10.86v-.96c0-3.01.58-5.71,1.73-8.08,1.15-2.37,2.76-4.22,4.83-5.56s4.31-2.01,6.73-2.01c3.95,0,7.02,1.3,9.21,3.91,2.19,2.6,3.29,6.33,3.29,11.18v2.16h-20.59c.08,3,.95,5.42,2.63,7.26,1.68,1.84,3.81,2.77,6.39,2.77,1.83,0,3.39-.37,4.66-1.12,1.27-.75,2.39-1.74,3.34-2.98l3.17,2.47c-2.55,3.91-6.37,5.87-11.46,5.87ZM668.89,17.05c-2.1,0-3.86.76-5.28,2.29-1.42,1.53-2.3,3.67-2.64,6.42h15.22v-.39c-.15-2.64-.86-4.69-2.13-6.14-1.27-1.45-3-2.18-5.17-2.18Z"/>
      <path d="M687.52,41.01c0-.9.27-1.65.8-2.25.53-.6,1.33-.9,2.4-.9s1.88.3,2.43.9c.55.6.83,1.35.83,2.25s-.28,1.58-.83,2.16c-.55.58-1.36.87-2.43.87s-1.87-.29-2.4-.87c-.53-.58-.8-1.3-.8-2.16Z"/>
      <path d="M701.17,28.26c0-2.98.59-5.66,1.76-8.03s2.8-4.21,4.89-5.51,4.47-1.94,7.15-1.94c4.14,0,7.49,1.43,10.04,4.3,2.56,2.87,3.83,6.68,3.83,11.43v.37c0,2.96-.57,5.61-1.7,7.96-1.13,2.35-2.75,4.18-4.86,5.49-2.11,1.31-4.53,1.97-7.26,1.97-4.12,0-7.46-1.43-10.01-4.3-2.56-2.86-3.83-6.66-3.83-11.38v-.37ZM706.39,28.88c0,3.37.78,6.08,2.34,8.12s3.66,3.06,6.28,3.06,4.74-1.03,6.29-3.1c1.55-2.07,2.33-4.97,2.33-8.69,0-3.33-.79-6.03-2.37-8.1-1.58-2.07-3.68-3.1-6.31-3.1s-4.63,1.02-6.21,3.06c-1.57,2.04-2.36,4.96-2.36,8.76Z"/>
      <path d="M750.04,18.01c-.79-.13-1.64-.2-2.56-.2-3.41,0-5.72,1.45-6.94,4.35v21.57h-5.2V13.34h5.06l.08,3.51c1.7-2.71,4.12-4.07,7.25-4.07,1.01,0,1.78.13,2.3.39v4.83Z"/>
      <path d="M753.58,28.29c0-4.74,1.1-8.51,3.29-11.31,2.19-2.8,5.09-4.2,8.71-4.2s6.6,1.31,8.68,3.93l.25-3.37h4.75v29.66c0,3.93-1.17,7.03-3.5,9.3-2.33,2.27-5.46,3.4-9.4,3.4-2.19,0-4.34-.47-6.43-1.4-2.1-.94-3.7-2.22-4.8-3.85l2.7-3.12c2.23,2.75,4.95,4.13,8.17,4.13,2.53,0,4.5-.71,5.91-2.13,1.41-1.42,2.12-3.43,2.12-6.01v-2.61c-2.08,2.4-4.92,3.59-8.51,3.59s-6.44-1.43-8.64-4.3c-2.2-2.86-3.3-6.77-3.3-11.71ZM758.81,28.88c0,3.43.7,6.12,2.11,8.08,1.4,1.96,3.37,2.93,5.9,2.93,3.28,0,5.68-1.49,7.22-4.47v-13.88c-1.59-2.9-3.98-4.35-7.16-4.35-2.53,0-4.5.98-5.93,2.95-1.42,1.97-2.13,4.88-2.13,8.74Z"/>
    </g>
  </g>
</svg>