<?xml version="1.0" encoding="UTF-8"?>
<svg id="Layer_2" data-name="Layer 2" xmlns="http://www.w3.org/2000/svg" viewBox="0 0 150 150">
  <g id="contact_page" data-name="contact page">
    <g>
      <g>
        <path d="M75,7.61C37.84,7.61,7.61,37.84,7.61,75s30.23,67.39,67.39,67.39,67.39-30.23,67.39-67.39S112.16,7.61,75,7.61ZM75,150C33.64,150,0,116.35,0,75S33.64,0,75,0s75,33.64,75,75-33.65,75-75,75Z"/>
        <rect x="102.01" y="96.31" width="16.63" height="16.63"/>
      </g>
      <path d="M78.27,113.39c-.7-1.4-1.27-3.9-1.71-7.49-5.65,5.87-12.4,8.81-20.25,8.81-7.01,0-12.76-1.98-17.26-5.95-4.49-3.97-6.74-8.99-6.74-15.09,0-7.41,2.82-13.16,8.45-17.26,5.63-4.1,13.55-6.15,23.76-6.15h11.83v-5.59c0-4.25-1.27-7.64-3.81-10.16-2.54-2.52-6.29-3.78-11.24-3.78-4.34,0-7.98,1.1-10.91,3.29-2.94,2.19-4.4,4.84-4.4,7.95h-12.23c0-3.55,1.26-6.98,3.78-10.29,2.52-3.31,5.94-5.93,10.26-7.86,4.32-1.93,9.06-2.89,14.23-2.89,8.19,0,14.62,2.05,19.26,6.15,4.64,4.1,7.06,9.74,7.23,16.93v32.74c0,6.53.83,11.72,2.5,15.58v1.05h-12.75ZM58.09,104.12c3.81,0,7.43-.99,10.85-2.96s5.89-4.54,7.43-7.69v-14.59h-9.53c-14.9,0-22.35,4.36-22.35,13.08,0,3.81,1.27,6.79,3.81,8.94,2.54,2.15,5.81,3.22,9.79,3.22Z"/>
    </g>
  </g>
</svg>