<?xml version="1.0" encoding="UTF-8"?>
<svg id="Layer_2" data-name="Layer 2" xmlns="http://www.w3.org/2000/svg" viewBox="0 0 1079.85 42.02">
  <defs>
    <style>
      .cls-1 {
        fill: none;
      }
    </style>
  </defs>
  <g id="contact_page" data-name="contact page">
    <rect class="cls-1" width="1079.85" height="42.02"/>
    <path d="M326.48,3.48l-16.94,37.98h-5.45l16.88-36.63h-22.13V.56h27.64v2.92Z"/>
    <path d="M361.21,41.46h-5.22V6.83l-10.48,3.85v-4.72l14.89-5.59h.81v41.09Z"/>
    <path d="M412.99,11.24c0,2.04-.54,3.86-1.61,5.45-1.08,1.59-2.53,2.84-4.37,3.74,2.13.92,3.82,2.26,5.07,4.02,1.25,1.76,1.87,3.75,1.87,5.98,0,3.54-1.19,6.36-3.58,8.46-2.39,2.1-5.53,3.15-9.42,3.15s-7.08-1.05-9.45-3.16c-2.37-2.11-3.55-4.92-3.55-8.44,0-2.21.6-4.2,1.81-5.98,1.21-1.78,2.88-3.13,5.01-4.04-1.82-.9-3.25-2.14-4.3-3.74-1.05-1.59-1.57-3.4-1.57-5.42,0-3.45,1.1-6.18,3.31-8.2,2.21-2.02,5.12-3.03,8.74-3.03s6.5,1.01,8.72,3.03c2.22,2.02,3.33,4.76,3.33,8.2ZM408.75,30.31c0-2.28-.73-4.15-2.18-5.59s-3.35-2.16-5.69-2.16-4.22.71-5.63,2.13c-1.41,1.42-2.12,3.3-2.12,5.62s.69,4.15,2.06,5.48,3.29,1.99,5.74,1.99,4.34-.67,5.73-2.01c1.39-1.34,2.08-3.16,2.08-5.46ZM400.94,4.27c-2.04,0-3.69.63-4.96,1.9-1.26,1.26-1.9,2.98-1.9,5.15s.62,3.76,1.87,5.04c1.25,1.28,2.91,1.92,4.99,1.92s3.74-.64,4.99-1.92c1.25-1.28,1.87-2.96,1.87-5.04s-.65-3.77-1.94-5.08c-1.29-1.31-2.93-1.97-4.92-1.97Z"/>
    <path d="M485.93,41.46h-26.8v-3.74l14.16-15.73c2.1-2.38,3.54-4.31,4.34-5.8.8-1.49,1.19-3.03,1.19-4.62,0-2.14-.65-3.89-1.94-5.25s-3.02-2.05-5.17-2.05c-2.58,0-4.59.74-6.03,2.21-1.43,1.47-2.15,3.52-2.15,6.14h-5.2c0-3.76,1.21-6.81,3.64-9.13,2.42-2.32,5.67-3.48,9.73-3.48,3.8,0,6.81,1,9.02,2.99,2.21,1.99,3.31,4.65,3.31,7.96,0,4.03-2.57,8.82-7.7,14.38l-10.96,11.88h20.53v4.24Z"/>
    <path d="M520.27,41.46h-5.22V6.83l-10.48,3.85v-4.72l14.89-5.59h.81v41.09Z"/>
    <path d="M572.05,11.24c0,2.04-.54,3.86-1.62,5.45-1.08,1.59-2.53,2.84-4.37,3.74,2.13.92,3.82,2.26,5.07,4.02,1.25,1.76,1.87,3.75,1.87,5.98,0,3.54-1.19,6.36-3.58,8.46s-5.53,3.15-9.42,3.15-7.08-1.05-9.45-3.16c-2.37-2.11-3.55-4.92-3.55-8.44,0-2.21.6-4.2,1.81-5.98,1.21-1.78,2.88-3.13,5.01-4.04-1.82-.9-3.25-2.14-4.3-3.74s-1.57-3.4-1.57-5.42c0-3.45,1.11-6.18,3.32-8.2,2.21-2.02,5.12-3.03,8.74-3.03s6.5,1.01,8.72,3.03c2.22,2.02,3.33,4.76,3.33,8.2ZM567.8,30.31c0-2.28-.73-4.15-2.18-5.59s-3.35-2.16-5.69-2.16-4.22.71-5.63,2.13c-1.41,1.42-2.12,3.3-2.12,5.62s.69,4.15,2.06,5.48,3.29,1.99,5.74,1.99,4.34-.67,5.73-2.01c1.39-1.34,2.08-3.16,2.08-5.46ZM559.99,4.27c-2.04,0-3.69.63-4.96,1.9s-1.9,2.98-1.9,5.15.62,3.76,1.87,5.04c1.25,1.28,2.91,1.92,4.99,1.92s3.74-.64,4.99-1.92c1.25-1.28,1.87-2.96,1.87-5.04s-.65-3.77-1.94-5.08c-1.29-1.31-2.93-1.97-4.92-1.97Z"/>
    <path d="M640.13,27.72h5.67v4.24h-5.67v9.49h-5.22v-9.49h-18.62v-3.06l18.31-28.34h5.53v27.16ZM622.18,27.72h12.72V7.67l-.62,1.12-12.11,18.93Z"/>
    <path d="M679.32,41.46h-5.22V6.83l-10.48,3.85v-4.72l14.89-5.59h.81v41.09Z"/>
    <path d="M733.09,41.46h-26.8v-3.74l14.16-15.73c2.1-2.38,3.54-4.31,4.34-5.8.8-1.49,1.19-3.03,1.19-4.62,0-2.14-.65-3.89-1.94-5.25s-3.02-2.05-5.17-2.05c-2.58,0-4.59.74-6.03,2.21-1.43,1.47-2.15,3.52-2.15,6.14h-5.2c0-3.76,1.21-6.81,3.64-9.13,2.42-2.32,5.67-3.48,9.73-3.48,3.8,0,6.81,1,9.02,2.99,2.21,1.99,3.31,4.65,3.31,7.96,0,4.03-2.57,8.82-7.7,14.38l-10.95,11.88h20.53v4.24Z"/>
    <path d="M776,24.02c0,6.09-1.04,10.61-3.12,13.57-2.08,2.96-5.33,4.44-9.75,4.44s-7.59-1.45-9.69-4.34c-2.1-2.89-3.18-7.21-3.26-12.96v-6.94c0-6.01,1.04-10.48,3.12-13.4,2.08-2.92,5.34-4.38,9.77-4.38s7.64,1.41,9.72,4.23c2.08,2.82,3.15,7.17,3.2,13.05v6.74ZM770.8,16.91c0-4.4-.62-7.61-1.85-9.62-1.24-2.01-3.19-3.02-5.87-3.02s-4.6,1-5.81,3.01c-1.22,2-1.84,5.08-1.88,9.24v8.31c0,4.42.64,7.68,1.92,9.79,1.28,2.11,3.23,3.16,5.83,3.16s4.47-.99,5.72-2.98c1.25-1.98,1.9-5.11,1.95-9.38v-8.51Z"/>
    <rect x="432.89" y="35.59" width="6.46" height="6.18"/>
    <rect x="591.94" y="35.59" width="6.46" height="6.18"/>
  </g>
</svg>